<?xml version="1.0" encoding="utf-8"?>
<!-- Generator: Adobe Illustrator 17.0.0, SVG Export Plug-In . SVG Version: 6.00 Build 0)  -->
<!DOCTYPE svg PUBLIC "-//W3C//DTD SVG 1.1//EN" "http://www.w3.org/Graphics/SVG/1.1/DTD/svg11.dtd">
<svg version="1.1" id="Layer_1" xmlns="http://www.w3.org/2000/svg" xmlns:xlink="http://www.w3.org/1999/xlink" x="0px" y="0px"
	 width="512px" height="512px" viewBox="0 0 512 512" enable-background="new 0 0 512 512" xml:space="preserve">
<path id="email-9-icon" fill="#666666" d="M256,50C142.229,50,50,142.229,50,256s92.229,206,206,206s206-92.229,206-206
	S369.771,50,256,50z M379.956,164.444l-122.951,94.297L134.25,164.444H379.956z M133.399,190.272l72.327,55.559l-72.327,72.327
	L133.399,190.272L133.399,190.272z M133.7,347.555l88.821-88.821l34.474,26.48l34.418-26.396l88.738,88.736L133.7,347.555
	L133.7,347.555z M380.6,318.307l-72.38-72.38l72.38-55.511V318.307z"/>
</svg>
