<?xml version="1.0" standalone="no"?>
<!DOCTYPE svg PUBLIC "-//W3C//DTD SVG 1.1//EN" "http://www.w3.org/Graphics/SVG/1.1/DTD/svg11.dtd">
<svg version="1.1" xmlns="http://www.w3.org/2000/svg" width="300.000000pt" height="402.000000pt" viewBox="0 0 300.000000 402.000000" preserveAspectRatio="xMidYMid meet">

<path fill="#323232" stroke="none" d="
M69 381

C61 379 57 375 57 371

C57 368 64 363 70 362

C76 361 77 360 77 354

C78 348 78 346 79 345

C79 344 80 342 80 340

C80 338 81 336 82 335

C83 334 86 319 86 316

C86 315 87 313 87 312

C87 309 88 308 89 302

C89 300 90 295 91 290

C92 285 93 281 93 280

C95 278 95 286 94 291

C93 293 93 296 93 297

C93 298 93 300 92 301

C90 303 89 308 89 313

C88 316 88 320 88 320

C87 320 86 327 85 339

C83 350 83 353 82 356

C81 358 82 358 83 359

C85 359 86 359 86 359

C86 358 87 358 92 358

C93 359 91 361 89 362

C88 362 87 362 88 363

C88 363 87 364 87 365

C86 366 84 366 80 366

C78 365 74 366 73 366

C67 369 63 371 63 372

C63 376 93 377 96 374

C97 374 97 370 98 366

C98 359 98 358 96 359

C95 359 95 359 95 358

C96 358 97 357 98 357

C98 357 100 357 101 356

C105 355 105 355 106 356

C106 356 106 357 105 358

C102 360 102 363 104 366

C105 368 105 368 104 370

C103 372 103 374 103 376

C102 380 102 380 91 381

C78 382 72 382 69 381

Z

M147 379

C145 379 143 379 141 379

C137 380 135 377 135 369

C135 363 135 362 133 362

C131 361 128 356 128 350

C128 347 127 344 127 344

C126 343 126 342 126 341

C127 341 126 339 126 338

C125 336 125 334 126 332

C127 329 127 327 127 326

C126 325 125 323 125 321

C124 318 122 314 121 312

C120 309 120 307 120 306

C120 304 124 304 124 305

C124 306 125 309 126 312

C128 315 129 319 129 320

C129 321 130 323 131 325

C132 329 132 330 131 333

C129 337 130 348 132 350

C132 350 133 352 133 354

C133 357 134 359 137 358

C139 357 139 357 140 371

L140 374

L147 374

C150 374 155 375 158 375

C162 375 171 374 173 372

C173 372 173 370 171 369

C169 366 168 366 161 366

C155 366 153 366 152 364

C152 363 152 362 152 361

C152 360 151 360 148 360

C142 360 144 357 152 355

C156 354 157 352 157 348

C156 346 156 344 155 343

C154 343 152 338 151 333

C148 321 148 321 147 314

C147 310 145 303 144 298

C143 292 142 287 142 285

C140 277 139 274 136 274

C135 274 133 274 133 275

C132 275 128 276 124 276

C120 276 115 277 113 277

C100 278 90 278 88 277

C84 274 84 272 85 255

C85 245 85 238 85 237

C84 237 81 239 78 242

L72 247

L72 260

C72 266 71 274 71 276

C70 280 70 282 71 289

C72 296 72 301 71 305

C69 308 63 313 60 313

C56 313 52 309 52 306

C51 305 51 304 50 304

C50 304 50 303 50 302

C52 300 52 287 51 280

C51 278 50 274 50 272

C50 270 49 267 49 265

C48 263 47 260 47 257

C47 254 46 251 45 251

C44 250 45 248 51 242

C55 237 58 233 58 233

C58 232 59 231 60 231

C61 231 64 228 66 225

C71 220 79 211 83 209

C83 208 86 207 88 206

C91 203 95 203 95 205

C94 205 91 209 88 213

C84 217 81 220 81 221

C81 221 81 222 80 222

C79 223 75 226 72 229

C68 232 64 236 63 236

C59 238 50 248 50 250

C50 251 50 252 50 253

C52 255 52 261 53 272

C53 277 54 280 55 281

C57 283 58 288 57 290

C57 291 56 293 57 296

C57 298 57 300 56 300

C55 302 57 307 59 307

C63 307 65 303 65 294

C65 289 66 283 66 280

C66 278 66 275 65 275

C65 275 65 272 65 269

C65 266 65 263 64 263

C64 262 64 261 65 260

C65 259 66 259 65 261

C65 263 65 265 67 265

C67 265 67 264 67 262

C67 261 67 259 67 258

C69 256 69 252 67 251

C67 250 67 249 68 247

C69 246 69 244 69 244

C70 242 83 229 84 229

C84 229 84 229 84 229

C84 228 85 227 86 225

C88 224 89 223 90 223

C90 224 93 223 96 221

C99 218 102 216 103 216

C104 216 105 216 105 218

C104 220 95 230 94 230

C93 230 93 232 93 234

C93 237 92 241 92 244

C92 246 91 253 91 259

L91 271

L93 272

C96 273 115 272 115 271

C115 270 118 270 121 270

C124 270 128 269 129 269

C131 268 132 268 133 268

C133 268 134 268 135 268

C135 267 137 267 139 267

C140 267 142 266 143 266

C145 264 145 228 143 225

C142 223 144 218 145 217

C146 217 147 217 148 218

C150 219 150 221 150 227

C150 231 150 234 150 235

C150 236 150 244 150 253

C150 270 149 271 148 273

C146 274 145 274 144 274

C142 273 142 273 145 285

C146 290 148 296 148 299

C148 302 149 304 149 305

C150 305 150 308 150 310

C150 316 151 322 154 328

C156 331 157 336 158 340

C159 343 160 346 161 348

C162 352 162 356 159 358

C157 359 157 359 161 360

C163 360 165 360 166 360

C167 359 174 363 176 365

C178 368 179 374 178 376

C175 379 157 381 147 379

Z

M110 360

C109 359 109 340 109 340

C110 340 111 327 112 315

C112 312 112 310 113 310

C113 310 113 309 113 307

C114 303 114 302 116 302

C118 303 118 303 118 307

C118 310 117 314 117 316

C116 328 115 332 115 333

C114 334 114 340 114 347

C114 354 114 360 114 361

C113 362 111 361 110 360

Z

M121 257

C113 255 112 254 117 248

L120 244

L118 241

C115 239 115 239 113 240

C112 241 111 242 111 245

C112 247 111 248 109 248

C106 250 106 249 102 242

C99 234 99 232 102 232

C104 232 106 232 106 233

C107 234 109 232 109 229

C109 225 109 225 111 225

C113 226 120 232 122 237

C123 239 124 239 126 237

C128 234 131 235 135 239

C140 243 139 246 134 249

C131 251 131 252 131 253

C133 255 133 257 130 258

C128 259 125 259 121 257

Z

M125 253

C125 252 124 252 123 252

C122 252 123 252 124 253

C125 254 126 254 125 253

Z

M130 245

C131 244 132 243 131 243

C131 243 130 243 129 244

C127 246 128 246 130 245

Z

M91 222

C91 221 92 221 93 221

C93 221 93 221 93 222

C93 222 92 223 91 223

C91 223 91 222 91 222

Z

M147 212

C147 211 148 209 149 208

C150 207 151 205 151 205

C151 205 153 201 156 198

C158 194 161 190 161 189

C161 188 162 186 163 186

C164 185 169 178 174 170

C179 162 184 156 184 156

C185 156 186 154 188 152

C189 150 193 146 195 143

C200 138 204 131 200 134

C199 135 199 135 199 135

C199 134 198 134 197 134

C195 134 183 145 183 147

C183 147 182 147 181 147

C180 147 178 149 174 154

C171 157 168 161 168 161

C166 161 162 159 162 158

C162 157 166 151 172 143

C178 135 183 128 184 127

C184 125 187 122 189 119

C191 116 193 114 193 113

C193 113 194 111 196 109

C197 108 198 106 198 105

C198 104 201 100 207 89

C209 87 211 84 211 84

C211 83 212 81 213 79

C215 76 216 74 216 73

C216 73 217 72 218 71

C219 70 221 69 221 68

C221 67 221 66 222 66

C223 65 223 64 223 64

C222 62 226 59 228 59

C231 59 232 59 230 62

C230 63 229 64 229 65

C229 65 229 66 228 66

C228 66 228 66 228 67

C228 68 227 68 227 69

C225 69 214 87 215 87

C215 87 214 89 213 90

C212 91 211 93 211 94

C211 95 209 99 207 102

C204 105 203 108 203 108

C203 109 202 110 202 110

C201 110 201 110 201 111

C201 112 200 113 200 113

C199 113 198 115 196 118

C194 121 193 124 193 124

C192 124 191 125 190 127

L188 130

L191 128

C193 127 194 125 198 118

C199 116 200 115 200 115

C202 113 206 106 206 105

C206 105 206 105 206 105

C207 105 221 85 224 80

C224 78 225 77 225 77

C226 76 228 73 230 69

C232 65 235 61 235 61

C237 59 240 55 243 49

C251 37 257 30 259 32

C260 33 257 39 256 40

C255 40 255 42 255 43

C255 45 254 45 253 45

C253 45 252 45 251 47

C251 48 248 52 246 57

C239 66 237 70 238 70

C238 70 241 66 244 61

C247 56 252 50 254 47

C256 44 260 40 261 37

C263 35 266 31 267 30

C268 28 270 27 270 26

C270 26 271 24 272 23

C274 21 274 19 274 19

C274 19 276 17 278 15

C282 10 285 10 285 13

C285 15 280 21 273 30

C271 34 269 37 269 37

C269 38 267 40 266 41

C261 47 254 57 254 58

C255 58 254 59 253 59

C252 59 251 60 251 61

C250 62 248 65 246 68

C244 71 243 74 243 74

C243 74 243 76 242 77

C240 79 240 80 240 81

C240 81 238 84 236 86

C234 89 233 92 233 92

C233 93 232 94 231 95

C230 96 229 97 229 97

C229 98 228 100 222 107

C220 110 218 114 216 116

C214 119 212 123 210 125

C208 128 208 128 209 133

L210 137

L205 143

C202 146 198 150 197 150

C196 151 194 153 194 154

C194 154 192 156 190 157

C186 159 182 166 184 166

C185 167 185 167 184 168

C184 169 184 170 184 170

C184 170 181 173 177 177

C170 184 162 195 160 199

C160 200 159 200 159 200

C158 200 157 201 156 202

C154 206 149 214 147 215

C147 215 147 214 147 212

Z

M210 117

C214 111 217 107 217 106

C217 106 218 104 219 103

C221 102 221 100 221 99

C221 98 221 98 221 98

C222 98 223 97 224 96

C227 92 238 71 237 72

C236 72 231 80 231 81

C231 81 230 83 229 84

C228 86 224 91 221 96

C218 101 215 105 215 106

C213 107 203 124 203 125

C203 126 203 127 203 127

C203 127 206 122 210 117

Z

M103 207

C99 206 98 204 99 200

C99 196 98 195 94 195

C91 194 84 191 81 187

C78 184 75 179 72 170

C71 166 69 163 67 160

C63 157 60 149 60 146

C60 145 61 143 61 142

C61 140 62 139 63 138

C64 137 66 134 66 130

C67 126 68 122 68 122

C68 121 68 119 68 119

C69 117 83 103 86 102

C88 101 88 100 86 100

C85 100 85 99 85 98

C85 98 85 97 84 97

C83 97 83 95 83 94

C83 92 80 88 78 85

C77 84 77 81 76 80

C76 77 76 76 78 76

C79 76 81 77 82 80

C83 82 86 86 87 89

C91 95 92 98 90 99

C90 99 90 99 93 99

C94 99 96 98 97 97

C97 97 97 97 96 97

C93 98 93 98 90 86

C88 78 88 77 89 76

C91 75 92 76 94 80

C95 82 96 83 96 83

C97 83 97 84 97 85

C97 86 97 89 98 90

C99 92 100 95 100 96

C99 98 99 98 101 97

C102 96 105 95 112 95

C122 95 129 97 134 99

C136 101 142 107 142 109

C142 110 142 111 143 112

C144 112 145 114 145 115

C145 118 145 119 147 117

C148 116 151 117 152 119

C152 127 153 131 154 135

L155 140

L152 141

C149 142 149 142 148 147

C148 149 148 152 148 152

C148 152 148 154 147 156

C147 158 146 161 146 163

C145 172 142 179 139 182

C138 184 137 185 137 185

C137 186 135 187 134 187

C132 188 132 189 132 191

C132 193 133 194 133 195

C134 196 134 202 134 203

C130 203 127 203 125 204

C117 206 115 206 113 206

C112 206 110 206 108 206

C106 207 104 207 103 207

Z

M123 198

C126 197 127 196 127 194

C127 192 126 191 125 192

C122 193 114 195 109 195

C105 196 105 196 105 198

C105 201 105 201 112 200

C116 200 121 199 123 198

Z

M121 189

C132 185 139 177 141 164

C141 161 142 158 142 157

C142 153 142 152 142 147

C143 143 142 143 141 142

C140 141 138 139 137 137

C135 132 134 132 132 135

C131 137 128 137 125 135

C123 134 122 134 115 135

C107 138 99 141 95 145

C94 146 93 146 93 146

C93 145 93 146 92 147

C92 147 90 149 88 150

C85 152 84 152 83 150

C82 150 81 148 81 147

C81 146 81 144 80 144

C80 143 80 142 80 140

C80 138 81 136 87 131

C95 124 100 121 108 119

C108 119 110 118 112 117

C114 117 115 116 116 116

C117 117 117 115 115 113

C113 112 113 111 114 110

C116 107 122 107 123 109

C123 110 123 111 119 114

C117 115 118 115 120 115

C126 116 127 116 127 117

C127 117 127 117 128 117

C129 116 130 116 132 119

C134 121 136 121 137 121

C139 120 139 118 137 114

C136 112 135 110 135 109

C135 109 134 108 133 107

C132 107 131 106 131 105

C131 104 130 103 129 103

C128 103 126 103 125 103

C122 102 112 102 111 102

C110 102 107 103 105 103

C103 103 101 103 101 104

C101 104 100 104 99 104

C98 104 97 104 97 104

C97 105 96 106 95 106

C92 106 87 108 85 111

C84 112 83 113 82 113

C82 113 80 114 77 117

C73 121 72 125 70 133

C70 136 70 137 71 138

C74 139 77 145 77 147

C77 148 77 150 78 151

C79 151 80 153 80 155

C80 157 79 158 76 159

C73 160 73 161 74 163

C74 165 75 167 76 168

C77 169 77 170 77 171

C76 173 81 182 84 184

C92 191 106 193 121 189

Z

M95 138

C98 137 103 134 106 133

C109 132 113 131 113 130

C114 130 117 129 120 129

C127 129 129 128 129 125

C129 123 125 122 120 122

C116 122 111 123 111 123

C111 124 110 124 109 124

C106 125 101 127 99 129

C97 130 94 133 92 135

C88 138 87 139 88 140

C89 141 89 142 88 141

C87 141 86 142 86 142

C85 144 89 142 95 138

Z

M135 130

C135 129 134 129 134 129

C134 129 134 129 134 130

C134 131 134 132 134 132

C135 132 135 131 135 130

Z

M137 196

C137 196 138 194 139 193

C140 192 142 188 145 185

C154 172 159 166 160 166

C162 166 162 166 157 173

C155 176 153 180 153 180

C153 182 143 194 141 196

C138 198 138 198 137 196

Z

M75 104

C74 103 72 101 72 100

C71 98 70 97 69 97

C69 97 69 96 69 96

C69 95 68 93 67 91

C66 89 66 86 66 86

C65 84 67 83 69 85

C71 86 79 102 79 104

C80 106 77 106 75 104

Z

M102 93

C102 92 102 90 101 87

C99 80 100 75 102 75

C104 74 106 79 107 86

C108 91 108 93 104 93

C103 93 102 93 102 93

Z

M111 90

C109 89 109 85 112 79

C113 74 114 74 115 75

C115 76 116 79 116 83

C116 89 114 92 111 90

Z

M123 91

C121 89 121 80 123 77

C123 76 123 75 123 75

C122 73 125 71 127 72

C128 72 129 74 129 76

C129 78 129 79 130 78

C130 77 130 76 130 77

C130 78 130 79 129 81

C127 82 127 84 127 86

C126 89 124 92 123 91

Z

M96 174

C95 173 95 172 95 171

C97 169 103 166 108 165

C110 165 112 164 113 164

C116 162 121 162 123 164

C126 167 124 169 116 169

C114 169 110 170 109 171

C107 172 105 172 105 172

C105 171 104 172 103 173

C101 175 98 176 96 174

Z

M102 157

C100 155 103 152 106 152

C108 152 109 152 110 151

C112 150 115 151 115 154

C114 156 111 156 110 154

C109 153 108 154 108 156

C108 159 104 159 102 157

Z

M81 125

C79 123 79 122 84 119

C89 116 92 117 89 121

C88 123 85 126 83 126

C82 126 81 126 81 125

Z

"/>

</svg>
